<?xml version="1.0" encoding="UTF-8"?>
<svg xmlns="http://www.w3.org/2000/svg" xmlns:xlink="http://www.w3.org/1999/xlink" width="0" height="0">

<symbol id="coffee-beans" width="88.000000pt" height="88.000000pt" viewBox="0 0 120.000000 120.000000" preserveAspectRatio="xMidYMid meet">
        <g transform="translate(0.000000,88.000000) scale(0.100000,-0.100000)" fill="#000000" stroke="none">
            <path d="M535 863 c-77 -28 -141 -69 -201 -130 -51 -53 -58 -56 -107 -59 -251 -11 -306 -304 -99 -526 213 -228 537 -181 546 79 1 50 4 55 64 114 42 42 74 86 99 137 34 68 38 83 38 156 0 85 -14 125 -59 174 -57 64 -186 89 -281 55z m169 -46 l30 -13 -56 -31 c-66 -38 -102 -79 -138 -156 l-26 -57 -34 26 c-19 14 -59 38 -89 52 l-55 25 58 54 c31 29 75 62 96 73 75 38 162 49 214 27z m103 -84 c13 -20 18 -46 17 -98 -1 -88 -34 -162 -109 -243 l-52 -56 -21 47 c-11 25 -34 66 -51 91 -30 43 -30 45 -16 91 25 83 88 153 165 184 39 15 48 13 67 -16z m-424 -148 c76 -38 165 -126 202 -200 32 -64 46 -176 28 -224 -9 -23 -11 -21 -40 31 -17 30 -48 69 -69 87 -41 37 -128 81 -159 81 -79 1 -201 111 -229 206 -18 60 160 73 267 19z m-228 -176 c46 -47 105 -80 190 -103 103 -29 189 -110 210 -197 6 -22 2 -28 -27 -40 -18 -8 -63 -14 -99 -13 -184 2 -371 189 -373 373 -1 36 3 75 7 86 8 18 11 15 31 -23 12 -24 40 -61 61 -83z"/>
        </g>
</symbol>


<symbol id="best-price_1" width="88.000000pt" height="88.000000pt" viewBox="0 0 120.000000 120.000000" preserveAspectRatio="xMidYMid meet">
        <g transform="translate(0.000000,88.000000) scale(0.100000,-0.100000)"
            fill="#000000" stroke="none">
            <path d="M500 871 c-80 -25 -158 -89 -196 -162 -20 -40 -33 -156 -16 -145 7 4
            12 15 12 25 0 46 33 122 72 166 107 121 286 128 398 15 81 -80 103 -204 56
            -305 -29 -63 -105 -132 -163 -148 -42 -11 -60 -37 -25 -37 31 0 119 47 155 84
            57 56 80 110 85 197 4 67 1 83 -23 138 -34 75 -95 132 -171 161 -55 20 -137
            25 -184 11z"/>
            <path d="M547 823 c-4 -3 -7 -17 -7 -29 0 -16 -10 -28 -29 -38 -26 -14 -61
            -68 -61 -96 0 -24 33 -81 54 -92 11 -7 41 -15 66 -18 37 -4 45 -9 45 -25 0
            -16 -8 -20 -40 -23 -76 -4 -105 -13 -116 -33 -14 -28 14 -59 53 -59 23 0 28
            -4 28 -25 0 -22 4 -25 40 -25 38 0 40 2 40 29 0 21 6 32 21 36 11 4 29 21 40
            38 45 75 3 156 -87 166 -44 5 -49 9 -49 31 0 24 3 25 69 30 51 4 72 10 80 23
            16 25 -4 51 -43 55 -25 3 -31 8 -31 27 0 12 -7 26 -16 29 -21 8 -49 8 -57 -1z
            m45 -50 c3 -24 8 -28 41 -31 56 -5 44 -22 -15 -22 -68 0 -102 -17 -106 -53 -5
            -39 12 -55 66 -63 60 -8 92 -37 92 -81 0 -36 -36 -83 -65 -83 -9 0 -15 -9 -15
            -25 0 -16 -6 -25 -15 -25 -9 0 -15 9 -15 25 0 23 -4 25 -41 25 -28 0 -39 4
            -37 13 3 7 28 13 69 15 50 2 68 7 82 23 22 27 22 44 -3 69 -13 13 -33 20 -60
            20 -44 0 -75 23 -86 64 -8 33 21 84 51 92 17 4 25 13 25 28 0 43 27 50 32 9z"/>
            <path d="M187 709 c-21 -23 -21 -27 -3 -45 19 -18 23 -18 46 4 18 17 18 18 -4
            39 -22 22 -23 22 -39 2z"/>
            <path d="M235 449 c-27 -97 -60 -158 -71 -131 -4 8 -31 12 -85 12 l-79 0 0
            -165 0 -165 79 0 c49 0 81 4 83 11 3 8 14 8 43 0 57 -16 287 -14 309 2 15 11
            22 40 29 132 1 17 6 36 10 43 5 7 7 25 6 40 -2 15 2 37 9 49 16 30 15 40 -8
            63 -17 17 -33 20 -115 20 l-95 0 3 71 c2 66 0 72 -26 95 -50 43 -61 35 -92
            -77z m79 52 c14 -16 16 -31 10 -95 l-7 -75 114 -3 c106 -3 114 -4 114 -23 0
            -15 -8 -21 -30 -23 -50 -4 -75 -12 -75 -22 0 -6 17 -10 39 -10 22 0 44 -6 51
            -15 21 -25 -5 -45 -57 -45 -58 0 -53 -24 6 -28 37 -3 42 -6 39 -25 -2 -18 -11
            -23 -51 -27 -61 -6 -65 -24 -7 -30 37 -4 45 -9 45 -25 0 -19 -8 -20 -130 -23
            -75 -2 -146 2 -167 8 l-38 11 0 114 c0 104 2 115 20 125 27 14 44 50 71 148
            12 45 25 82 29 82 4 0 15 -8 24 -19z m-174 -336 l0 -135 -55 0 -55 0 0 135 0
            135 55 0 55 0 0 -135z"/>
            <path d="M700 206 c0 -8 -7 -16 -15 -20 -13 -5 -12 -9 5 -26 25 -25 25 -25 50
            0 17 17 18 21 5 26 -8 4 -15 12 -15 20 0 8 -7 14 -15 14 -8 0 -15 -6 -15 -14z"
        />
    </g>
</symbol>

<symbol id="coffee-cup" width="88.000000pt" height="88.000000pt" viewBox="0 0 120.000000 120.000000" preserveAspectRatio="xMidYMid meet">
        <g transform="translate(0.000000,88.000000) scale(0.100000,-0.100000)" fill="#000000" stroke="none">
            <path d="M333 853 c-9 -36 -5 -64 14 -85 15 -17 14 -43 -2 -95 -12 -37 20 -28 39 11 21 44 20 54 -5 95 -15 25 -19 43 -14 68 5 26 3 33 -9 33 -9 0 -19 -12 -23 -27z"/>
            <path d="M242 828 c-18 -18 -14 -56 10 -100 22 -38 22 -40 5 -70 -13 -23 -15 -34 -7 -42 17 -16 50 29 50 68 0 17 -9 46 -21 65 -16 27 -18 39 -11 57 15 32 -2 46 -26 22z"/>
            <path d="M430 821 c-15 -29 -12 -48 13 -91 22 -39 22 -41 4 -72 -13 -23 -15 -34 -7 -42 17 -17 50 30 50 71 0 20 -9 48 -21 65 -17 24 -19 34 -11 53 17 36 -9 51 -28 16z"/>
            <path d="M4 565 c-4 -8 -4 -66 -2 -128 4 -128 27 -192 93 -266 l37 -41 -66 0 c-60 0 -66 -2 -66 -20 0 -34 28 -79 60 -95 26 -14 75 -15 336 -13 l306 3 29 33 c18 20 29 43 29 62 l0 30 -86 0 -87 0 39 44 c35 39 44 44 84 45 64 2 120 36 148 91 17 35 22 61 22 127 0 78 -1 83 -23 88 -13 4 -27 5 -33 4 -5 -1 -30 -1 -56 0 -40 1 -47 4 -50 24 -3 22 -4 22 -201 25 -185 2 -198 1 -195 -15 3 -16 20 -18 187 -21 l184 -2 -5 -104 c-6 -126 -32 -189 -108 -260 l-49 -46 -171 0 -171 0 -47 44 c-79 74 -112 164 -112 302 l0 64 59 0 c37 0 63 5 70 13 17 22 3 27 -76 27 -56 0 -75 -4 -79 -15z m836 -156 c0 -78 -1 -82 -32 -113 -30 -30 -101 -56 -115 -42 -13 12 9 36 32 36 16 0 38 12 56 30 27 26 30 35 27 82 l-3 53 -42 3 c-29 2 -43 8 -43 18 0 11 14 14 60 14 l60 0 0 -81z m-60 -14 c0 -14 -11 -37 -25 -50 -27 -28 -50 -33 -41 -9 3 9 6 31 6 50 0 31 3 34 30 34 25 0 30 -4 30 -25z m-60 -308 c0 -8 -8 -21 -18 -30 -16 -15 -56 -17 -321 -17 -273 -1 -305 1 -322 16 -47 43 -38 44 321 44 278 0 340 -2 340 -13z"/>
            <path d="M235 570 c-8 -13 4 -32 16 -25 12 8 12 35 0 35 -6 0 -13 -4 -16 -10z"/>
            <path d="M606 415 c-3 -9 -6 -29 -6 -44 0 -15 -16 -54 -35 -86 -26 -42 -33 -61 -25 -69 23 -23 90 96 93 166 2 41 -15 63 -27 33z"/>
            <path d="M475 191 c-7 -12 12 -24 25 -16 11 7 4 25 -10 25 -5 0 -11 -4 -15 -9z"/>
        </g>
</symbol>

<symbol id="badge_1"
 width="88.000000pt" height="88.000000pt" viewBox="0 0 120.000000 120.000000"
 preserveAspectRatio="xMidYMid meet">

    <g transform="translate(0.000000,88.000000) scale(0.100000,-0.100000)"
        fill="#000000" stroke="none">
        <path d="M381 850 c-34 -23 -55 -30 -92 -30 -38 0 -51 -5 -63 -22 -9 -12 -16
            -31 -16 -42 0 -11 -23 -41 -52 -68 l-52 -48 13 -51 c11 -43 11 -61 0 -106
            l-13 -55 47 -42 c72 -62 76 -92 32 -206 -19 -51 -32 -96 -29 -102 3 -5 28 -6
            58 -3 51 7 53 6 89 -34 20 -23 41 -41 46 -41 5 0 26 43 46 95 21 52 41 95 45
            95 4 0 24 -43 45 -95 20 -52 40 -95 44 -95 4 0 25 18 46 41 39 40 41 40 92 34
            30 -4 54 -2 57 4 4 5 -9 49 -29 98 -45 113 -42 140 28 205 l50 47 -13 54 c-10
            45 -10 63 1 106 l13 52 -52 48 c-29 26 -52 57 -52 67 0 11 -7 30 -16 42 -12
            17 -25 22 -63 22 -37 0 -58 7 -92 30 -24 16 -51 30 -59 30 -8 0 -35 -14 -59
            -30z m102 -32 c20 -15 52 -25 87 -28 54 -5 55 -5 71 -49 10 -27 32 -58 55 -77
            l38 -32 -12 -49 c-10 -40 -10 -59 0 -97 l12 -47 -42 -37 c-25 -23 -47 -53 -54
            -77 -13 -39 -14 -40 -68 -45 -35 -3 -67 -13 -87 -28 -39 -27 -46 -27 -84 0
            -20 15 -50 25 -87 28 -57 5 -57 5 -70 48 -10 28 -28 54 -57 78 l-43 35 15 46
            c14 41 14 51 0 94 l-15 48 43 35 c29 24 47 50 57 78 13 43 13 43 68 48 35 3
            66 13 85 27 38 28 50 28 88 1z m-115 -588 c17 -11 32 -22 32 -25 0 -6 -52
            -138 -57 -144 -2 -3 -18 9 -36 26 -27 26 -38 30 -69 26 -21 -3 -38 -2 -38 1 0
            3 12 35 26 71 l26 65 42 0 c23 0 55 -9 74 -20z m283 -35 c35 -93 36 -88 -7
            -83 -33 5 -44 1 -71 -25 -18 -17 -34 -29 -36 -26 -5 6 -57 138 -57 144 0 3 15
            14 33 25 22 14 46 20 76 18 42 -3 44 -4 62 -53z"/>
        <path d="M362 747 c-89 -33 -145 -114 -145 -212 0 -157 143 -259 297 -213 91
            28 167 151 150 245 -24 141 -170 227 -302 180z m168 -42 c57 -30 100 -104 100
            -172 -1 -118 -117 -211 -228 -183 -123 31 -184 153 -133 265 21 47 70 92 109
            101 15 3 32 7 37 9 17 6 88 -7 115 -20z"/>
        <path d="M408 626 c-13 -27 -24 -34 -57 -40 -48 -7 -52 -22 -15 -57 22 -21 25
            -30 20 -66 -3 -23 -1 -45 4 -48 5 -3 26 3 46 13 37 19 38 19 70 0 43 -25 55
            -17 48 35 -5 36 -2 45 20 66 37 35 33 50 -15 57 -33 6 -44 13 -57 40 -8 19
            -23 34 -32 34 -9 0 -24 -15 -32 -34z m47 -46 c3 -11 14 -20 24 -20 27 0 33
            -12 15 -31 -9 -10 -14 -27 -12 -37 4 -16 -1 -18 -42 -18 -41 0 -46 2 -42 18 2
            10 -3 27 -12 37 -18 19 -12 31 15 31 10 0 21 9 24 20 3 11 10 20 15 20 5 0 12
            -9 15 -20z"/>
    </g>
</symbol>

<symbol id="vector" width="16.000000pt" height="16.000000pt" viewBox="0 0 20 22" fill="none" preserveAspectRatio="xMidYMid meet">
           <path d="M8 9V16L16 8L8 0V7H0V9H8Z" fill="#603809"/>
       
</symbol>

<symbol id="prev" width="16.000000pt" height="16.000000pt" viewBox="0 0 20 22" fill="none" preserveAspectRatio="xMidYMid meet">
           <path d="M8 9V16L0 8L8 0V7H16V9H8Z" fill="#603809"/>
       
</symbol>
</svg>
